REM DIRINDEX 1\6,1\2\7,1\2\8,1\2\9,1\3\10,1\3\11,1\4\12,1\4\13,1\4\14,1\5\15,1\5\16,1\5\17
REM DIRNAME cjc040,folder01,folder02,folder03,folder04,folder05,folder06,folder07,folder08,folder09,folder10,folder11,folder12,folder13,folder14,folder15,folder16
TITLE ""
FILE "P2Q_t2_0304-0321.mp3" MP3
  TRACK 01 AUDIO
    TITLE "7:cjc040_4740"
    INDEX 01 00:00:00
  TRACK 02 AUDIO
    TITLE "0:"
    INDEX 01 00:01:09
  TRACK 03 AUDIO
    TITLE "8:cjc040_4741"
    INDEX 01 00:01:68
  TRACK 04 AUDIO
    TITLE "0:"
    INDEX 01 00:04:70
  TRACK 05 AUDIO
    TITLE "9:cjc040_4742"
    INDEX 01 00:05:44
  TRACK 06 AUDIO
    TITLE "0:"
    INDEX 01 00:06:63
  TRACK 07 AUDIO
    TITLE "7:cjc040_4743"
    INDEX 01 00:08:46
  TRACK 08 AUDIO
    TITLE "0:"
    INDEX 01 00:09:63
  TRACK 09 AUDIO
    TITLE "8:cjc040_4744"
    INDEX 01 00:10:37
  TRACK 10 AUDIO
    TITLE "0:"
    INDEX 01 00:11:60
  TRACK 11 AUDIO
    TITLE "9:cjc040_4745"
    INDEX 01 00:12:34
  TRACK 12 AUDIO
    TITLE "0:"
    INDEX 01 00:13:57
  TRACK 13 AUDIO
    TITLE "7:cjc040_4746"
    INDEX 01 00:15:36
  TRACK 14 AUDIO
    TITLE "0:"
    INDEX 01 00:16:42
  TRACK 15 AUDIO
    TITLE "8:cjc040_4747"
    INDEX 01 00:17:21
  TRACK 16 AUDIO
    TITLE "0:"
    INDEX 01 00:19:42
  TRACK 17 AUDIO
    TITLE "9:cjc040_4748"
    INDEX 01 00:20:24
  TRACK 18 AUDIO
    TITLE "0:"
    INDEX 01 00:21:33
  TRACK 19 AUDIO
    TITLE "7:cjc040_4749"
    INDEX 01 00:23:18
  TRACK 20 AUDIO
    TITLE "0:"
    INDEX 01 00:24:25
  TRACK 21 AUDIO
    TITLE "8:cjc040_4750"
    INDEX 01 00:25:05
  TRACK 22 AUDIO
    TITLE "0:"
    INDEX 01 00:26:09
  TRACK 23 AUDIO
    TITLE "9:cjc040_4751"
    INDEX 01 00:26:62
  TRACK 24 AUDIO
    TITLE "0:"
    INDEX 01 00:27:69
  TRACK 25 AUDIO
    TITLE "7:cjc040_4752"
    INDEX 01 00:29:56
  TRACK 26 AUDIO
    TITLE "0:"
    INDEX 01 00:30:69
  TRACK 27 AUDIO
    TITLE "8:cjc040_4753"
    INDEX 01 00:31:47
  TRACK 28 AUDIO
    TITLE "0:"
    INDEX 01 00:32:60
  TRACK 29 AUDIO
    TITLE "9:cjc040_4754"
    INDEX 01 00:33:38
  TRACK 30 AUDIO
    TITLE "0:"
    INDEX 01 00:34:63
  TRACK 31 AUDIO
    TITLE "7:cjc040_4755"
    INDEX 01 00:36:48
  TRACK 32 AUDIO
    TITLE "0:"
    INDEX 01 00:37:69
  TRACK 33 AUDIO
    TITLE "8:cjc040_4756"
    INDEX 01 00:38:51
  TRACK 34 AUDIO
    TITLE "0:"
    INDEX 01 00:40:01
  TRACK 35 AUDIO
    TITLE "9:cjc040_4757"
    INDEX 01 00:40:54
  TRACK 36 AUDIO
    TITLE "0:"
    INDEX 01 00:42:06
  TRACK 37 AUDIO
    TITLE "7:cjc040_4758"
    INDEX 01 00:43:66
  TRACK 38 AUDIO
    TITLE "0:"
    INDEX 01 00:45:00
  TRACK 39 AUDIO
    TITLE "8:cjc040_4759"
    INDEX 01 00:45:57
  TRACK 40 AUDIO
    TITLE "0:"
    INDEX 01 00:49:63
  TRACK 41 AUDIO
    TITLE "9:cjc040_4760"
    INDEX 01 00:50:37
  TRACK 42 AUDIO
    TITLE "0:"
    INDEX 01 00:51:48
  TRACK 43 AUDIO
    TITLE "7:cjc040_4761"
    INDEX 01 00:53:35
  TRACK 44 AUDIO
    TITLE "0:"
    INDEX 01 00:54:60
  TRACK 45 AUDIO
    TITLE "8:cjc040_4762"
    INDEX 01 00:55:38
  TRACK 46 AUDIO
    TITLE "0:"
    INDEX 01 00:57:48
  TRACK 47 AUDIO
    TITLE "9:cjc040_4763"
    INDEX 01 00:58:26
  TRACK 48 AUDIO
    TITLE "0:"
    INDEX 01 00:59:51
  TRACK 49 AUDIO
    TITLE "7:cjc040_4764"
    INDEX 01 01:01:33
  TRACK 50 AUDIO
    TITLE "0:"
    INDEX 01 01:02:40
  TRACK 51 AUDIO
    TITLE "8:cjc040_4765"
    INDEX 01 01:03:20
  TRACK 52 AUDIO
    TITLE "0:"
    INDEX 01 01:07:21
  TRACK 53 AUDIO
    TITLE "9:cjc040_4766"
    INDEX 01 01:08:03
  TRACK 54 AUDIO
    TITLE "0:"
    INDEX 01 01:09:16
  TRACK 55 AUDIO
    TITLE "7:cjc040_4767"
    INDEX 01 01:11:03
  TRACK 56 AUDIO
    TITLE "0:"
    INDEX 01 01:12:15
  TRACK 57 AUDIO
    TITLE "8:cjc040_4768"
    INDEX 01 01:12:73
  TRACK 58 AUDIO
    TITLE "0:"
    INDEX 01 01:14:17
  TRACK 59 AUDIO
    TITLE "9:cjc040_4769"
    INDEX 01 01:14:74
  TRACK 60 AUDIO
    TITLE "0:"
    INDEX 01 01:16:16
  TRACK 61 AUDIO
    TITLE "7:cjc040_4770"
    INDEX 01 01:18:00
  TRACK 62 AUDIO
    TITLE "0:"
    INDEX 01 01:19:15
  TRACK 63 AUDIO
    TITLE "8:cjc040_4771"
    INDEX 01 01:19:68
  TRACK 64 AUDIO
    TITLE "0:"
    INDEX 01 01:21:18
  TRACK 65 AUDIO
    TITLE "9:cjc040_4772"
    INDEX 01 01:21:70
  TRACK 66 AUDIO
    TITLE "0:"
    INDEX 01 01:23:15
  TRACK 67 AUDIO
    TITLE "7:cjc040_4773"
    INDEX 01 01:25:02
  TRACK 68 AUDIO
    TITLE "0:"
    INDEX 01 01:26:15
  TRACK 69 AUDIO
    TITLE "8:cjc040_4774"
    INDEX 01 01:26:70
  TRACK 70 AUDIO
    TITLE "0:"
    INDEX 01 01:29:48
  TRACK 71 AUDIO
    TITLE "9:cjc040_4775"
    INDEX 01 01:30:28
  TRACK 72 AUDIO
    TITLE "0:"
    INDEX 01 01:31:39
  TRACK 73 AUDIO
    TITLE "7:cjc040_4776"
    INDEX 01 01:33:21
  TRACK 74 AUDIO
    TITLE "0:"
    INDEX 01 01:34:30
  TRACK 75 AUDIO
    TITLE "8:cjc040_4777"
    INDEX 01 01:35:08
  TRACK 76 AUDIO
    TITLE "0:"
    INDEX 01 01:37:30
  TRACK 77 AUDIO
    TITLE "9:cjc040_4778"
    INDEX 01 01:38:10
  TRACK 78 AUDIO
    TITLE "0:"
    INDEX 01 01:39:19
  TRACK 79 AUDIO
    TITLE "7:cjc040_4779"
    INDEX 01 01:41:09
  TRACK 80 AUDIO
    TITLE "0:"
    INDEX 01 01:42:30
  TRACK 81 AUDIO
    TITLE "8:cjc040_4780"
    INDEX 01 01:43:15
  TRACK 82 AUDIO
    TITLE "0:"
    INDEX 01 01:45:36
  TRACK 83 AUDIO
    TITLE "9:cjc040_4781"
    INDEX 01 01:46:18
  TRACK 84 AUDIO
    TITLE "0:"
    INDEX 01 01:47:37
  TRACK 85 AUDIO
    TITLE "7:cjc040_4782"
    INDEX 01 01:49:22
  TRACK 86 AUDIO
    TITLE "0:"
    INDEX 01 01:50:33
  TRACK 87 AUDIO
    TITLE "8:cjc040_4783"
    INDEX 01 01:51:17
  TRACK 88 AUDIO
    TITLE "0:"
    INDEX 01 01:52:30
  TRACK 89 AUDIO
    TITLE "9:cjc040_4784"
    INDEX 01 01:53:16
  TRACK 90 AUDIO
    TITLE "0:"
    INDEX 01 01:54:27
  TRACK 91 AUDIO
    TITLE "7:cjc040_4785"
    INDEX 01 01:56:20
  TRACK 92 AUDIO
    TITLE "0:"
    INDEX 01 01:57:27
  TRACK 93 AUDIO
    TITLE "8:cjc040_4786"
    INDEX 01 01:58:05
  TRACK 94 AUDIO
    TITLE "0:"
    INDEX 01 01:59:30
  TRACK 95 AUDIO
    TITLE "9:cjc040_4787"
    INDEX 01 02:00:08
  TRACK 96 AUDIO
    TITLE "0:"
    INDEX 01 02:01:19
  TRACK 97 AUDIO
    TITLE "7:cjc040_4788"
    INDEX 01 02:02:73
  TRACK 98 AUDIO
    TITLE "0:"
    INDEX 01 02:04:21
  TRACK 99 AUDIO
    TITLE "8:cjc040_4789"
    INDEX 01 02:04:74
  TRACK 100 AUDIO
    TITLE "0:"
    INDEX 01 02:10:00
  TRACK 101 AUDIO
    TITLE "9:cjc040_4790"
    INDEX 01 02:10:55
  TRACK 102 AUDIO
    TITLE "0:"
    INDEX 01 02:12:07
  TRACK 103 AUDIO
    TITLE "7:cjc040_4791"
    INDEX 01 02:13:56
  TRACK 104 AUDIO
    TITLE "0:"
    INDEX 01 02:15:05
  TRACK 105 AUDIO
    TITLE "8:cjc040_4792"
    INDEX 01 02:15:54
  TRACK 106 AUDIO
    TITLE "0:"
    INDEX 01 02:18:18
  TRACK 107 AUDIO
    TITLE "9:cjc040_4793"
    INDEX 01 02:18:66
  TRACK 108 AUDIO
    TITLE "0:"
    INDEX 01 02:20:12
